<?xml version="1.0" encoding="utf-8"?>
<!-- Generator: Adobe Illustrator 24.3.0, SVG Export Plug-In . SVG Version: 6.00 Build 0)  -->
<svg version="1.1" id="圖層_2" xmlns="http://www.w3.org/2000/svg" xmlns:xlink="http://www.w3.org/1999/xlink" x="0px" y="0px"
	 viewBox="0 0 150 150" style="enable-background:new 0 0 150 150;" xml:space="preserve">
<style type="text/css">
	.st0{fill:#FFFFFF;}
</style>
<g>
	<path class="st0" d="M134.5,92.9c-0.7,0-1.2,0.6-1.2,1.2v14.7c0,0.7,0.6,1.2,1.2,1.2c0.7,0,1.2-0.6,1.2-1.2V94.1
		C135.7,93.4,135.2,92.9,134.5,92.9z"/>
	<path class="st0" d="M122.2,55.3v-1.8c0-13.3-10.4-24.2-23.5-25.1l4.8,4.8c0.8,0.8,0.8,2.1,0,2.9c-0.8,0.8-2.1,0.8-2.9,0l-8.4-8.4
		c-0.4-0.4-0.6-0.9-0.6-1.5c0-0.5,0.2-1.1,0.6-1.5l8.4-8.4c0.8-0.8,2.1-0.8,2.9,0s0.8,2.1,0,2.9l-4.9,4.9
		c15.4,0.8,27.7,13.6,27.7,29.2v1.8c0,1.1-0.9,2.1-2.1,2.1C123.1,57.4,122.2,56.5,122.2,55.3z"/>
	<path class="st0" d="M41.1,118c-3.6,0-6.6,3-6.6,6.6s3,6.6,6.6,6.6c3.6,0,6.6-3,6.6-6.6S44.7,118,41.1,118z M41.1,128.7
		c-2.3,0-4.1-1.8-4.1-4.1s1.8-4.1,4.1-4.1c2.3,0,4.1,1.8,4.1,4.1S43.4,128.7,41.1,128.7z"/>
	<path class="st0" d="M48.4,22.5H33.7c-0.7,0-1.2,0.6-1.2,1.2c0,0.7,0.6,1.2,1.2,1.2h14.7c0.7,0,1.2-0.6,1.2-1.2
		C49.7,23.1,49.1,22.5,48.4,22.5z"/>
	<path class="st0" d="M135.9,64.2H80.4V68h42.3v67H92.5H77.7c-0.5,0.6-1.2,1.3-2,2c-1,0.8-2,1.3-2.8,1.7h19.6h43.4c6.1,0,11-5,11-11
		V75.3C146.9,69.2,142,64.2,135.9,64.2z M143.2,127.6c0,4-3.3,7.3-7.3,7.3h-9.5V68h9.5c4,0,7.3,3.3,7.3,7.3V127.6z"/>
	<path class="st0" d="M75.5,134.9L75.5,134.9c1.7-2,2.8-4.5,2.8-7.3V68v-3.7V22.4c0-6.1-4.9-11-11-11H14.9c-6.1,0-11,4.9-11,11
		v105.2c0,6.1,4.9,11,11,11h50.8h1.5c0.7,0,1.3-0.1,2-0.2c1.4-0.3,3.4-1,4.8-2.1C74.6,135.9,75.1,135.4,75.5,134.9z M7.6,22.4
		c0-4,3.3-7.3,7.3-7.3h52.3c4,0,7.3,3.3,7.3,7.3v9.5h-67V22.4z M7.6,35.6h67v75.7h-67V35.6z M67.3,134.9H14.9c-4,0-7.3-3.3-7.3-7.3
		v-12.5h67v12.5C74.6,131.7,71.3,134.9,67.3,134.9z"/>
</g>
</svg>
